<?xml version="1.0" encoding="UTF-8"?>
<!DOCTYPE svg PUBLIC "-//W3C//DTD SVG 1.1//EN" "http://www.w3.org/Graphics/SVG/1.1/DTD/svg11.dtd">
<!-- Creator: CorelDRAW -->
<svg xmlns="http://www.w3.org/2000/svg" xml:space="preserve" style="shape-rendering:geometricPrecision; text-rendering:geometricPrecision; image-rendering:optimizeQuality; fill-rule:evenodd; clip-rule:evenodd" viewBox="0 0 6.72 6.72" xmlns:xlink="http://www.w3.org/1999/xlink">
	<defs>
		<style type="text/css">
			<![CDATA[
			.fil4 {fill:none}
			.fil2 {fill:url(#id0);fill-rule:nonzero}
			.fil3 {fill:url(#id1);fill-rule:nonzero}
			.fil1 {fill:url(#id2);fill-rule:nonzero}
			.fil0 {fill:url(#id3);fill-rule:nonzero}
			]]>
		</style>
		<linearGradient id="id0" gradientUnits="userSpaceOnUse" x1="2.32288" y1="4.58894" x2="4.39711" y2="4.58894">
			<stop offset="0" style="stop-color:#E4877C" />
			<stop offset="1" style="stop-color:#B03686" />
		</linearGradient>
		<linearGradient id="id1" gradientUnits="userSpaceOnUse" xlink:href="#id0" x1="2.95529" y1="4.58894" x2="3.76471" y2="4.58894">
		</linearGradient>
		<linearGradient id="id2" gradientUnits="userSpaceOnUse" xlink:href="#id0" x1="1.91073" y1="1.39263" x2="4.80928" y2="1.39263">
		</linearGradient>
		<linearGradient id="id3" gradientUnits="userSpaceOnUse" xlink:href="#id0" x1="1.38063" y1="3.36" x2="5.33937" y2="3.36">
		</linearGradient>
	</defs>
	<g id="Layer_x0020_1">
		<metadata id="CorelCorpID_0Corel-Layer" />
		<path class="fil0" d="M1.46063 0.8l3.79873 0c0.0441811,0 0.08,0.0358189 0.08,0.08l0 4.96c0,0.0441811 -0.0358189,0.08 -0.08,0.08l-3.79873 0c-0.0441811,0 -0.08,-0.0358189 -0.08,-0.08l0 -4.96c0,-0.0441811 0.0358189,-0.08 0.08,-0.08zm3.71873 0.16l-3.63873 0 0 4.8 3.63873 0 0 -4.8z" />
		<path class="fil1" d="M1.99073 1.31263c-0.0441811,0 -0.08,0.0358189 -0.08,0.08 0,0.0441811 0.0358189,0.08 0.08,0.08l2.73854 0c0.0441811,0 0.08,-0.0358189 0.08,-0.08 0,-0.0441811 -0.0358189,-0.08 -0.08,-0.08l-2.73854 0z" />
		<path class="fil1" d="M1.99073 1.89041c-0.0441811,0 -0.08,0.0358189 -0.08,0.08 0,0.0441811 0.0358189,0.08 0.08,0.08l2.73854 0c0.0441811,0 0.08,-0.0358189 0.08,-0.08 0,-0.0441811 -0.0358189,-0.08 -0.08,-0.08l-2.73854 0z" />
		<path class="fil1" d="M1.99073 2.4682c-0.0441811,0 -0.08,0.0358189 -0.08,0.08 0,0.0441811 0.0358189,0.08 0.08,0.08l2.73854 0c0.0441811,0 0.08,-0.0358189 0.08,-0.08 0,-0.0441811 -0.0358189,-0.08 -0.08,-0.08l-2.73854 0z" />
		<path class="fil1" d="M1.99073 3.04598c-0.0441811,0 -0.08,0.0358189 -0.08,0.08 0,0.0441811 0.0358189,0.08 0.08,0.08l2.73854 0c0.0441811,0 0.08,-0.0358189 0.08,-0.08 0,-0.0441811 -0.0358189,-0.08 -0.08,-0.08l-2.73854 0z" />
		<path class="fil2" d="M3.60407 3.80788c0.0236142,0.00734252 0.0466496,0.015685 0.0690551,0.0249724 0.022626,0.00938189 0.0448307,0.019815 0.0665512,0.0312402l0.124516 -0.124516 -3.93701e-006 -3.93701e-006c0.0312402,-0.0312402 0.0818937,-0.0312402 0.113134,0l0.000287402 0.000295276 0.231748 0.231748 3.93701e-006 -3.93701e-006c0.0312402,0.0312402 0.0312402,0.0818937 0,0.113134l-0.000295276 0.000287402 -0.124232 0.124236c0.0114252,0.0217165 0.0218583,0.0439213 0.0312402,0.0665472 0.0092874,0.0224016 0.0176299,0.045437 0.0249724,0.0690472l0.176063 0c0.0441811,0 0.08,0.0358189 0.08,0.08l0 0.328154c0,0.0441811 -0.0358189,0.08 -0.08,0.08l-0.176063 0c-0.00734252,0.0236102 -0.015685,0.0466457 -0.0249724,0.0690472 -0.00938189,0.022626 -0.019811,0.0448307 -0.0312402,0.0665512l0.124524 0.124524 3.93701e-006 -3.93701e-006c0.0312402,0.0312402 0.0312402,0.0818937 0,0.113134l-0.000295276 0.000287402 -0.231748 0.231748 3.93701e-006 3.93701e-006c-0.0312402,0.0312402 -0.0818937,0.0312402 -0.113134,0l-0.000287402 -0.000295276 -0.124228 -0.124228c-0.0217205,0.0114291 -0.0439252,0.0218622 -0.0665551,0.0312441 -0.0224055,0.0092874 -0.045437,0.0176299 -0.0690472,0.0249724l0 0.176055c0,0.0441811 -0.0358189,0.08 -0.08,0.08l-0.328154 0c-0.0441811,0 -0.08,-0.0358189 -0.08,-0.08l0 -0.176055c-0.0236102,-0.00734252 -0.0466457,-0.015685 -0.0690472,-0.0249724 -0.0226299,-0.00938189 -0.0448346,-0.019815 -0.0665551,-0.0312441l-0.12452 0.12452 3.93701e-006 3.93701e-006c-0.0312402,0.0312402 -0.0818937,0.0312402 -0.113134,0l-0.000287402 -0.000295276 -0.231748 -0.231748 -3.93701e-006 3.93701e-006c-0.0312402,-0.0312402 -0.0312402,-0.0818937 0,-0.113134l0.000295276 -0.000287402 0.124232 -0.124232c-0.0114291,-0.0217205 -0.0218583,-0.0439252 -0.0312402,-0.0665512 -0.0092874,-0.0224016 -0.0176299,-0.045437 -0.0249724,-0.0690472l-0.176063 0c-0.0441811,0 -0.08,-0.0358189 -0.08,-0.08l0 -0.328154c0,-0.0441811 0.0358189,-0.08 0.08,-0.08l0.176063 0c0.00734252,-0.0236102 0.0156811,-0.0466417 0.0249685,-0.0690394 0.00938189,-0.0226299 0.019815,-0.0448386 0.0312441,-0.0665591l-0.124524 -0.124524 0.056563 -0.056563 -0.0565709 0.0565669c-0.0312402,-0.0312402 -0.0312362,-0.0818976 3.93701e-006,-0.113138l0.000444882 -0.000433071 0.231598 -0.231598 -3.93701e-006 -3.93701e-006c0.0312402,-0.0312402 0.0818937,-0.0312402 0.113134,0l0.000287402 0.000295276 0.124224 0.124224c0.0217205,-0.0114252 0.0439252,-0.0218583 0.0665512,-0.0312402 0.0224055,-0.0092874 0.0454409,-0.0176299 0.0690551,-0.0249724l0 -0.176051c0,-0.0441811 0.0358189,-0.08 0.08,-0.08l0.328154 0c0.0441811,0 0.08,0.0358189 0.08,0.08l0 0.176051zm0.00780315 0.172476c-0.0323622,-0.0134134 -0.0656575,-0.0242677 -0.0995906,-0.0322992 -0.0385906,-0.00570079 -0.0682126,-0.0389606 -0.0682126,-0.0791339l0 -0.157094 -0.168154 0 0 0.155874c0.000602362,0.0370433 -0.0247323,0.0707126 -0.0622992,0.0792362l-0.0177008 -0.0780157 0.0175 0.077811c-0.0359134,0.00814567 -0.071126,0.0194567 -0.105303,0.033622 -0.0329252,0.0136496 -0.064248,0.0296969 -0.0937126,0.0478898 -0.031311,0.0231378 -0.0756693,0.0205276 -0.104031,-0.00783465l3.93701e-006 -3.93701e-006 -0.111142 -0.111142 -0.118913 0.118913 0.109878 0.109882c0.0269646,0.0257362 0.0330276,0.0677205 0.0123898,0.100476l-0.00019685 -0.000125984c-0.0194685,0.0308976 -0.0365591,0.0638858 -0.0509764,0.0986654 -0.0134173,0.0323661 -0.0242677,0.0656457 -0.0322992,0.0995827 -0.00570472,0.0385866 -0.0389606,0.0682047 -0.0791339,0.0682047l-0.157102 0 0 0.168154 0.155476 0c0.0372008,-0.000795276 0.0710827,0.0245906 0.0796417,0.0622913l-0.0780157 0.0177087 0.077811 -0.0175c0.00814961,0.0359094 0.0194567,0.0711142 0.033626,0.105295 0.0136535,0.0329291 0.0296969,0.064252 0.0478858,0.0937165 0.0231378,0.031311 0.0205276,0.0756693 -0.00783465,0.104031l-3.93701e-006 -3.93701e-006 -0.111146 0.111146 0.118913 0.118913 0.109874 -0.109874c0.0257362,-0.0269646 0.0677205,-0.0330276 0.100476,-0.0123898l-0.000125984 0.00019685c0.0308976,0.0194685 0.0638858,0.0365591 0.0986654,0.0509764 0.0323622,0.0134173 0.0656496,0.0242677 0.0995827,0.0322992 0.0385906,0.00570079 0.0682126,0.0389606 0.0682126,0.0791339l0 0.157098 0.168154 0 0 -0.155878c-0.000602362,-0.0370433 0.0247323,-0.0707126 0.0622992,-0.0792362l0.0177008 0.0780157 -0.0175 -0.077811c0.0359134,-0.00814567 0.0711181,-0.0194528 0.105295,-0.033622 0.0329291,-0.0136535 0.0642559,-0.0297008 0.0937205,-0.0478898 0.031311,-0.0231378 0.0756693,-0.0205276 0.104031,0.00783465l-3.93701e-006 3.93701e-006 0.111142 0.111142 0.118913 -0.118913 -0.109878 -0.109878c-0.0269646,-0.0257362 -0.0330276,-0.0677205 -0.0123898,-0.100476l0.00019685 0.000125984c0.0194685,-0.0308976 0.0365551,-0.0638858 0.0509724,-0.0986614 0.0134213,-0.032374 0.0242717,-0.0656654 0.0323071,-0.0996063 0.0057126,-0.0385787 0.0389606,-0.068189 0.0791299,-0.068189l0.157102 0 0 -0.168154 -0.155476 0c-0.0372008,0.000795276 -0.0710827,-0.0245906 -0.0796417,-0.0622913l0.0780157 -0.0177087 -0.077811 0.0175c-0.00814961,-0.0359094 -0.0194567,-0.0711142 -0.033626,-0.105295 -0.0136457,-0.0329173 -0.029689,-0.0642283 -0.0478701,-0.0936811 -0.0231575,-0.031311 -0.0205551,-0.0756929 0.00781496,-0.104063l0.0565709 0.0565669 -0.056563 -0.056563 0.111146 -0.11115 -0.118913 -0.118913 -0.109878 0.109878c-0.0257362,0.0269646 -0.0677205,0.0330197 -0.100476,0.0123819l0.000125984 -0.00019685c-0.0308976,-0.0194646 -0.0638819,-0.0365591 -0.0986535,-0.0509724z" />
		<path class="fil3" d="M3.36 4.18423c0.111744,0 0.212929,0.0453071 0.286169,0.118543 0.0732362,0.0732402 0.118543,0.174425 0.118543,0.286169 0,0.111744 -0.0453071,0.212929 -0.118543,0.286169 -0.0732402,0.0732362 -0.174425,0.118543 -0.286169,0.118543 -0.111744,0 -0.212929,-0.0453071 -0.286169,-0.118543 -0.0732362,-0.0732402 -0.118543,-0.174425 -0.118543,-0.286169 0,-0.111744 0.0453071,-0.212929 0.118543,-0.286169 0.0732402,-0.0732362 0.174425,-0.118543 0.286169,-0.118543zm0.173043 0.231669c-0.0442795,-0.0442756 -0.105465,-0.0716693 -0.173043,-0.0716693 -0.0675787,0 -0.128764,0.0273937 -0.173043,0.0716693 -0.0442756,0.0442795 -0.0716693,0.105465 -0.0716693,0.173043 0,0.0675787 0.0273937,0.128764 0.0716693,0.173043 0.0442795,0.0442756 0.105465,0.0716693 0.173043,0.0716693 0.0675787,0 0.128764,-0.0273937 0.173043,-0.0716693 0.0442756,-0.0442795 0.0716693,-0.105465 0.0716693,-0.173043 0,-0.0675787 -0.0273937,-0.128764 -0.0716693,-0.173043z" />
	</g>
	<rect class="fil4" width="6.72" height="6.72" />
</svg>
