<?xml version="1.0" encoding="iso-8859-1"?>
<!-- Generator: Adobe Illustrator 19.0.0, SVG Export Plug-In . SVG Version: 6.00 Build 0) -->
<svg version="1.1" id="Layer_1" xmlns="http://www.w3.org/2000/svg" xmlns:xlink="http://www.w3.org/1999/xlink" x="0px" y="0px" viewBox="0 0 511.009 511.009" style="enable-background:new 0 0 511.009 511.009;" xml:space="preserve">
	<g>
		<path style="fill:#E2AE83;" d="M195.898,190.603l-4.414,25.6L317.718,89.968c9.71-9.71,23.834-11.476,36.193-5.297l0,0
		l15.89-22.952c10.593-15.007,7.062-34.428-7.945-45.021s-33.545-8.828-45.021,7.945l-24.717,34.428
		c13.241-18.538,12.359-42.372-1.766-52.966c-15.007-10.593-34.428-7.062-45.021,7.945l-72.386,104.166l0,0
		C191.484,133.223,202.96,163.237,195.898,190.603" />
		<path style="fill:#E2AE83;" d="M66.132,380.396c0-17.655,7.062-36.193,21.186-49.434l16.772-17.655
		c0.883-36.193,11.476-80.331,11.476-80.331c15.007-52.083,15.007-119.172,16.772-120.055c0.883-0.883,2.648-3.531,6.179-5.297
		c-5.297-22.069-23.834-41.49-43.255-46.786c-3.531-0.883-7.062-0.883-10.593-0.883c-12.359-0.883-15.007,7.062-15.89,7.945
		c-1.766,1.766,9.71,67.09,3.531,120.938c0,0-2.648,45.021,2.648,81.214l-14.124,20.303
		C41.415,318.603,44.946,355.679,66.132,380.396L66.132,380.396z" />
	</g>
	<path style="fill:#FDC794;" d="M430.712,342.437c12.359-12.359,12.359-33.545,0-45.903c-12.359-12.359-33.545-12.359-45.903,0
	l-57.379,53.848l126.234-122.703c12.359-12.359,12.359-33.545,0-45.903c-12.359-12.359-37.076-8.828-45.903,0l-68.855,68.855
	l91.807-91.807c12.359-12.359,12.359-33.545,0-45.903s-30.897-14.124-45.903,0l-90.924,91.807l67.09-67.09
	c15.89-15.89,14.124-35.31,1.766-47.669c-12.359-12.359-32.662-13.241-45.903,0L190.601,216.203l4.414-25.6
	c8.828-31.779-9.71-67.972-34.428-79.448c-3.531-1.766-7.062-2.648-10.593-2.648c-11.476-2.648-15.007,4.414-16.772,5.297
	c-1.766,0.883-2.648,67.972-16.772,120.055c0,0-10.593,44.138-11.476,80.331l-17.655,17.655c-28.248,28.248-28.248,74.152,0,103.283
	l57.379,57.379c23.834,21.186,60.91,23.834,90.924,9.71c7.062-3.531,15.89-8.828,23.834-9.71c10.593-0.883,31.779-8.828,51.2-28.248
	c3.531-3.531,46.786-46.786,51.2-51.2l0,0L430.712,342.437z" />
	<g>
		<path style="fill:#F9A671;" d="M114.684,376.865c-2.648,0-5.297-0.883-7.062-3.531c-11.476-15.89-9.71-31.779-8.828-45.021
		c0.883-4.414,0.883-7.945,0.883-12.359s3.531-8.828,8.828-8.828l0,0c5.297,0,8.828,4.414,8.828,8.828s-0.883,9.71-0.883,14.124
		c-0.883,11.476-2.648,22.069,5.297,32.662c2.648,3.531,1.766,9.71-1.766,12.359C118.215,375.982,116.449,376.865,114.684,376.865z" />
		<path style="fill:#F9A671;" d="M185.305,242.686c-0.883,0-1.766,0-2.648-0.883c-4.414-1.766-7.062-6.179-5.297-11.476l5.297-16.772
		c1.766-4.414,6.179-7.062,11.476-5.297c4.414,1.766,7.062,6.179,5.297,11.476l-5.297,16.772
		C192.367,240.037,188.836,242.686,185.305,242.686z" />
		<path style="fill:#F9A671;" d="M247.98,262.106c-2.648,0-4.414-0.883-6.179-2.648c-3.531-3.531-3.531-8.828,0-12.359
		L356.56,132.341c3.531-3.531,8.828-3.531,12.359,0c3.531,3.531,3.531,8.828,0,12.359L254.16,259.458
		C252.394,261.223,250.629,262.106,247.98,262.106z" />
		<path style="fill:#F9A671;" d="M309.774,288.589c-2.648,0-4.414-0.883-6.179-2.648c-3.531-3.531-3.531-8.828,0-12.359
		l98.869-97.986c3.531-3.531,8.828-3.531,12.359,0c3.531,3.531,3.531,8.828,0,12.359l-98.869,97.986
		C314.187,287.706,312.422,288.589,309.774,288.589z" />
		<path style="fill:#F9A671;" d="M327.429,359.21c-2.648,0-4.414-0.883-6.179-2.648c-3.531-3.531-3.531-8.828,0-12.359l58.262-53.848
		c3.531-3.531,8.828-3.531,12.359,0c3.531,3.531,3.531,8.828,0,12.359l-58.262,53.848
		C331.843,358.327,329.194,359.21,327.429,359.21z" />
		<path style="fill:#F9A671;" d="M244.449,491.623c-10.593,0-17.655-4.414-32.662-13.241c-4.414-2.648-5.297-7.945-3.531-12.359
		c2.648-4.414,7.945-5.297,12.359-3.531c16.772,9.71,20.303,11.476,29.131,9.71c5.297-0.883,9.71,2.648,9.71,7.062
		s-2.648,9.71-7.062,9.71C248.863,491.623,246.215,491.623,244.449,491.623z" />
	</g>
	<g>
	</g>
	<g>
	</g>
	<g>
	</g>
	<g>
	</g>
	<g>
	</g>
	<g>
	</g>
	<g>
	</g>
	<g>
	</g>
	<g>
	</g>
	<g>
	</g>
	<g>
	</g>
	<g>
	</g>
	<g>
	</g>
	<g>
	</g>
	<g>
	</g>
</svg>
