<?xml version="1.0" encoding="UTF-8" standalone="no"?> <svg id="Layer_1" data-name="Layer 1" xmlns="http://www.w3.org/2000/svg" viewBox="0 0 128 128"><defs><style>.cls-1{fill:#1d75b8;}.cls-2{fill:#2d3e50;}</style></defs><title>n</title><path class="cls-1" d="M58.3398,60.38689l-8.63837,8.63863-2.952-2.95205A2.65273,2.65273,0,0,0,42.99786,69.825l4.82794,4.82744a2.65252,2.65252,0,0,0,3.75127,0L62.09133,64.13814a2.65264,2.65264,0,0,0-3.75153-3.75126Z"/><circle class="cls-1" cx="97.84632" cy="44.86826" r="4.81638"/><circle class="cls-1" cx="75.19556" cy="44.86826" r="4.81641"/><circle class="cls-1" cx="52.54515" cy="44.86826" r="4.81645"/><circle class="cls-1" cx="29.89442" cy="44.86826" r="4.81644"/><circle class="cls-1" cx="97.84632" cy="67.51906" r="4.81638"/><circle class="cls-1" cx="75.19556" cy="67.51906" r="4.81641"/><circle class="cls-1" cx="29.89442" cy="67.51906" r="4.81644"/><circle class="cls-1" cx="97.84632" cy="90.16951" r="4.81637"/><circle class="cls-1" cx="75.19556" cy="90.16951" r="4.8164"/><circle class="cls-1" cx="52.54515" cy="90.16951" r="4.81644"/><circle class="cls-1" cx="29.89442" cy="90.16951" r="4.81644"/><path class="cls-2" d="M114.68086,14.3142h-17.54v-2.026a5.23107,5.23107,0,1,0-10.46214,0v2.026H69.19884v-2.026A5.23675,5.23675,0,0,0,64.00214,7.056V7.05577L64,7.0559l-.00215-.00013V7.056a5.23675,5.23675,0,0,0-5.1967,5.23224v2.026H41.3213v-2.026a5.23107,5.23107,0,1,0-10.46214,0v2.026h-17.54A11.98373,11.98373,0,0,0,1.34972,26.28362v82.69122a11.98373,11.98373,0,0,0,11.96941,11.9694H114.68086a11.98372,11.98372,0,0,0,11.96941-11.9694V26.28362A11.98372,11.98372,0,0,0,114.68086,14.3142Zm1.50729,94.66063a1.50914,1.50914,0,0,1-1.50729,1.50729H13.31914a1.50914,1.50914,0,0,1-1.50729-1.50729V26.28362a1.50913,1.50913,0,0,1,1.50729-1.50729h17.54v2.02882a5.23107,5.23107,0,1,0,10.46214,0V24.77633H58.80116v2.02882a5.23857,5.23857,0,0,0,5.1967,5.23225v.00024L64,32.03753l.00212.00011V32.0374a5.23856,5.23856,0,0,0,5.1967-5.23225V24.77633H86.6787v2.02882a5.23107,5.23107,0,1,0,10.46214,0V24.77633h17.54a1.50913,1.50913,0,0,1,1.50729,1.50729Z"/></svg>