<?xml version="1.0" encoding="UTF-8" standalone="no"?>
<svg viewBox="0 0 512 512" fill="none" xmlns="http://www.w3.org/2000/svg">
	<path fill-rule="evenodd" clip-rule="evenodd" d="M24 80C24 66.7452 34.7452 56 48 56H464C477.255 56 488 66.7452 488 80V432C488 445.255 477.255 456 464 456H48C34.7452 456 24 445.255 24 432V80ZM48 72C43.5817 72 40 75.5817 40 80V136H472V80C472 75.5817 468.418 72 464 72H48ZM40 432V152H472V432C472 436.418 468.418 440 464 440H48C43.5817 440 40 436.418 40 432ZM424 120C432.837 120 440 112.837 440 104C440 95.1634 432.837 88 424 88C415.163 88 408 95.1634 408 104C408 112.837 415.163 120 424 120ZM376 104C376 112.837 368.837 120 360 120C351.163 120 344 112.837 344 104C344 95.1634 351.163 88 360 88C368.837 88 376 95.1634 376 104ZM232.48 208.864C221.823 202.203 208 209.865 208 222.432V353.564C208 366.131 221.823 373.792 232.48 367.132L337.386 301.566C347.412 295.299 347.412 280.697 337.386 274.43L232.48 208.864ZM224 222.432L328.906 287.998L224 353.564V222.432Z" fill="url(#paint0_linear)" />
	<defs>
		<linearGradient id="paint0_linear" x1="64" y1="64" x2="448" y2="448" gradientUnits="userSpaceOnUse">
			<stop stop-color="#FF003D" />
			<stop offset="1" stop-color="#3D00EB" />
		</linearGradient>
	</defs>
</svg>
